<svg xmlns="http://www.w3.org/2000/svg" xmlns:xlink="http://www.w3.org/1999/xlink" width="1080" zoomAndPan="magnify" viewBox="0 0 810 299.999988" height="400" preserveAspectRatio="xMidYMid meet" version="1.0"><defs><g/><clipPath id="7820cecf5e"><path d="M 422 62.375 L 428 62.375 L 428 71 L 422 71 Z M 422 62.375 " clip-rule="nonzero"/></clipPath><clipPath id="03e378172f"><path d="M 425 68 L 433.585938 68 L 433.585938 73 L 425 73 Z M 425 68 " clip-rule="nonzero"/></clipPath><clipPath id="087fe9b1e1"><path d="M 391 62.375 L 433.585938 62.375 L 433.585938 105 L 391 105 Z M 391 62.375 " clip-rule="nonzero"/></clipPath><clipPath id="84953f27a7"><rect x="0" width="235" y="0" height="134"/></clipPath><clipPath id="8bbfff16b1"><rect x="0" width="117" y="0" height="52"/></clipPath></defs><path fill="#0097b2" d="M 402.144531 79.945312 C 398.320312 83.769531 398.320312 89.957031 402.144531 93.78125 C 405.96875 97.605469 412.15625 97.605469 415.980469 93.78125 C 419.742188 90.019531 419.757812 84.0625 416.289062 80.269531 L 413.707031 82.851562 C 414.636719 83.929688 415.203125 85.332031 415.203125 86.863281 C 415.203125 90.25 412.449219 93.003906 409.0625 93.003906 C 405.675781 93.003906 402.921875 90.25 402.921875 86.863281 C 402.921875 83.476562 405.675781 80.722656 409.0625 80.722656 C 410.59375 80.722656 411.996094 81.289062 413.074219 82.222656 L 415.65625 79.636719 C 411.867188 76.171875 405.90625 76.183594 402.144531 79.945312 Z M 402.144531 79.945312 " fill-opacity="1" fill-rule="nonzero"/><path fill="#0097b2" d="M 412.441406 82.855469 C 411.527344 82.082031 410.347656 81.617188 409.0625 81.617188 C 406.167969 81.617188 403.816406 83.96875 403.816406 86.863281 C 403.816406 89.757812 406.167969 92.109375 409.0625 92.109375 C 411.957031 92.109375 414.308594 89.757812 414.308594 86.863281 C 414.308594 85.578125 413.84375 84.398438 413.074219 83.484375 L 409.378906 87.179688 C 409.203125 87.355469 408.921875 87.355469 408.746094 87.179688 C 408.574219 87.003906 408.574219 86.722656 408.746094 86.546875 Z M 412.441406 82.855469 " fill-opacity="1" fill-rule="nonzero"/><path fill="#0097b2" d="M 399.25 77.054688 C 396.632812 79.671875 395.1875 83.15625 395.1875 86.863281 C 395.1875 94.53125 401.394531 100.738281 409.0625 100.738281 C 412.769531 100.738281 416.253906 99.292969 418.875 96.675781 C 424.203125 91.34375 424.28125 82.804688 419.183594 77.375 L 416.921875 79.636719 C 420.773438 83.820312 420.683594 90.339844 416.613281 94.414062 C 414.59375 96.429688 411.914062 97.539062 409.0625 97.539062 C 403.164062 97.539062 398.386719 92.765625 398.386719 86.863281 C 398.386719 80.964844 403.160156 76.1875 409.0625 76.1875 C 411.765625 76.1875 414.3125 77.1875 416.289062 79.007812 L 418.550781 76.742188 C 413.125 71.644531 404.582031 71.722656 399.25 77.054688 Z M 399.25 77.054688 " fill-opacity="1" fill-rule="nonzero"/><g clip-path="url(#7820cecf5e)"><path fill="#0097b2" d="M 426.441406 62.375 L 422.9375 65.878906 L 424.410156 70.886719 L 427.914062 67.382812 Z M 426.441406 62.375 " fill-opacity="1" fill-rule="nonzero"/></g><path fill="#0097b2" d="M 419.816406 76.742188 C 425.265625 82.527344 425.175781 91.632812 419.503906 97.304688 C 413.734375 103.078125 404.390625 103.078125 398.621094 97.304688 C 395.832031 94.515625 394.296875 90.808594 394.296875 86.863281 C 394.296875 78.703125 400.898438 72.097656 409.0625 72.097656 C 412.859375 72.097656 416.433594 73.519531 419.183594 76.109375 L 421.445312 73.847656 C 414.40625 67.140625 403.277344 67.242188 396.359375 74.160156 C 389.335938 81.179688 389.335938 92.546875 396.359375 99.566406 C 403.378906 106.589844 414.746094 106.589844 421.765625 99.566406 C 428.667969 92.664062 428.796875 81.53125 422.078125 74.480469 Z M 419.816406 76.742188 " fill-opacity="1" fill-rule="nonzero"/><g clip-path="url(#03e378172f)"><path fill="#0097b2" d="M 425.039062 71.515625 L 430.046875 72.988281 L 433.550781 69.484375 L 428.542969 68.011719 Z M 425.039062 71.515625 " fill-opacity="1" fill-rule="nonzero"/></g><g clip-path="url(#087fe9b1e1)"><path fill="#0097b2" d="M 421.765625 99.566406 C 418.375 102.960938 413.863281 104.828125 409.0625 104.828125 C 399.132812 104.828125 391.097656 96.792969 391.097656 86.863281 C 391.097656 76.933594 399.132812 68.898438 409.0625 68.898438 C 413.710938 68.898438 418.09375 70.652344 421.445312 73.847656 L 419.183594 76.109375 C 413.398438 70.660156 404.292969 70.75 398.621094 76.421875 C 392.847656 82.191406 392.847656 91.535156 398.621094 97.304688 C 401.410156 100.09375 405.117188 101.628906 409.0625 101.628906 C 413.007812 101.628906 416.714844 100.09375 419.503906 97.304688 C 425.171875 91.640625 425.273438 82.53125 419.816406 76.742188 L 422.078125 74.480469 C 428.785156 81.519531 428.683594 92.652344 421.765625 99.566406 Z M 408.746094 87.179688 C 408.921875 87.355469 409.203125 87.355469 409.378906 87.179688 L 413.074219 83.484375 C 413.84375 84.398438 414.308594 85.578125 414.308594 86.863281 C 414.308594 89.757812 411.957031 92.109375 409.0625 92.109375 C 406.167969 92.109375 403.816406 89.757812 403.816406 86.863281 C 403.816406 83.96875 406.167969 81.617188 409.0625 81.617188 C 410.347656 81.617188 411.527344 82.082031 412.441406 82.855469 L 408.746094 86.546875 C 408.574219 86.722656 408.574219 87.003906 408.746094 87.179688 Z M 409.0625 80.722656 C 405.675781 80.722656 402.921875 83.476562 402.921875 86.863281 C 402.921875 90.25 405.675781 93.003906 409.0625 93.003906 C 412.449219 93.003906 415.203125 90.25 415.203125 86.863281 C 415.203125 85.332031 414.636719 83.929688 413.707031 82.851562 L 416.289062 80.269531 C 419.753906 84.058594 419.742188 90.019531 415.980469 93.78125 C 412.15625 97.605469 405.96875 97.605469 402.144531 93.78125 C 398.320312 89.957031 398.320312 83.769531 402.144531 79.945312 C 405.90625 76.183594 411.867188 76.171875 415.65625 79.636719 L 413.074219 82.222656 C 411.996094 81.289062 410.59375 80.722656 409.0625 80.722656 Z M 401.515625 79.316406 C 399.496094 81.332031 398.386719 84.011719 398.386719 86.863281 C 398.386719 92.761719 403.160156 97.539062 409.0625 97.539062 C 411.914062 97.539062 414.59375 96.429688 416.613281 94.414062 C 420.679688 90.34375 420.777344 83.824219 416.921875 79.636719 L 419.183594 77.375 C 424.28125 82.800781 424.203125 91.34375 418.875 96.675781 C 416.253906 99.292969 412.769531 100.738281 409.0625 100.738281 C 401.394531 100.738281 395.1875 94.53125 395.1875 86.863281 C 395.1875 79.195312 401.394531 72.988281 409.0625 72.988281 C 412.621094 72.988281 415.972656 74.320312 418.550781 76.742188 L 416.289062 79.007812 C 412.105469 75.152344 405.585938 75.242188 401.515625 79.316406 Z M 422.9375 65.878906 L 426.441406 62.375 L 427.914062 67.382812 L 424.410156 70.886719 Z M 430.046875 72.988281 L 425.039062 71.515625 L 428.542969 68.011719 L 433.550781 69.484375 Z M 430.046875 72.988281 " fill-opacity="1" fill-rule="nonzero"/></g><g fill="#0097b2" fill-opacity="1"><g transform="translate(55.607524, 188.963137)"><g><path d="M 42.765625 -21.9375 C 42.765625 -24.351562 41.863281 -26.460938 40.0625 -28.265625 C 38.257812 -30.066406 36.109375 -30.96875 33.609375 -30.96875 L 23.140625 -30.96875 L 23.140625 -12.890625 L 33.609375 -12.890625 C 36.109375 -12.890625 38.257812 -13.769531 40.0625 -15.53125 C 41.863281 -17.300781 42.765625 -19.4375 42.765625 -21.9375 Z M 37.578125 -53.234375 C 37.578125 -55.648438 36.710938 -57.703125 34.984375 -59.390625 C 33.265625 -61.085938 31.226562 -61.9375 28.875 -61.9375 L 23.140625 -61.9375 L 23.140625 -44.515625 L 28.875 -44.515625 C 31.226562 -44.515625 33.265625 -45.378906 34.984375 -47.109375 C 36.710938 -48.835938 37.578125 -50.878906 37.578125 -53.234375 Z M 59.625 -21.484375 C 59.625 -15.023438 57.640625 -9.828125 53.671875 -5.890625 C 49.703125 -1.960938 44.117188 0 36.921875 0 L 6.609375 0 L 6.609375 -74.9375 L 32.40625 -74.9375 C 36.664062 -74.9375 40.351562 -74.09375 43.46875 -72.40625 C 46.59375 -70.71875 49.019531 -68.457031 50.75 -65.625 C 52.476562 -62.800781 53.34375 -59.660156 53.34375 -56.203125 C 53.34375 -52.378906 52.550781 -49.085938 50.96875 -46.328125 C 49.382812 -43.578125 47.195312 -41.578125 44.40625 -40.328125 C 48.59375 -39.378906 52.175781 -37.269531 55.15625 -34 C 58.132812 -30.726562 59.625 -26.554688 59.625 -21.484375 Z M 59.625 -21.484375 "/></g></g></g><g fill="#0097b2" fill-opacity="1"><g transform="translate(116.329481, 188.963137)"><g><path d="M 47.390625 -28.65625 L 37.90625 -55.328125 L 28.4375 -28.65625 Z M 75.375 0 L 57.640625 0 L 52.234375 -15.09375 L 23.6875 -15.09375 L 18.296875 0 L 0.546875 0 L 30.96875 -74.9375 L 44.96875 -74.9375 Z M 75.375 0 "/></g></g></g><g fill="#0097b2" fill-opacity="1"><g transform="translate(192.259479, 188.963137)"><g><path d="M 48.9375 -30.078125 L 23.140625 -30.078125 L 23.140625 0 L 6.609375 0 L 6.609375 -74.9375 L 50.03125 -74.9375 L 50.03125 -59.953125 L 23.140625 -59.953125 L 23.140625 -45.078125 L 48.9375 -45.078125 Z M 48.9375 -30.078125 "/></g></g></g><g fill="#0097b2" fill-opacity="1"><g transform="translate(247.801875, 188.963137)"><g><path d="M 23.140625 -26.78125 L 23.140625 0 L 6.609375 0 L 6.609375 -74.9375 L 34.71875 -74.9375 C 38.757812 -74.9375 42.523438 -73.925781 46.015625 -71.90625 C 49.503906 -69.882812 52.3125 -67.070312 54.4375 -63.46875 C 56.570312 -59.875 57.640625 -55.6875 57.640625 -50.90625 C 57.640625 -46.71875 56.863281 -43.007812 55.3125 -39.78125 C 53.769531 -36.550781 51.710938 -33.90625 49.140625 -31.84375 C 46.578125 -29.789062 43.71875 -28.359375 40.5625 -27.546875 L 62.046875 0 L 41.109375 0 L 23.25 -26.78125 Z M 31.953125 -61.9375 L 23.140625 -61.9375 L 23.140625 -39.78125 L 31.953125 -39.78125 C 34.378906 -39.78125 36.640625 -40.734375 38.734375 -42.640625 C 40.828125 -44.554688 41.875 -47.3125 41.875 -50.90625 C 41.875 -54.363281 40.828125 -57.066406 38.734375 -59.015625 C 36.640625 -60.960938 34.378906 -61.9375 31.953125 -61.9375 Z M 31.953125 -61.9375 "/></g></g></g><g fill="#0097b2" fill-opacity="1"><g transform="translate(308.523855, 188.963137)"><g><path d="M 47.390625 -28.65625 L 37.90625 -55.328125 L 28.4375 -28.65625 Z M 75.375 0 L 57.640625 0 L 52.234375 -15.09375 L 23.6875 -15.09375 L 18.296875 0 L 0.546875 0 L 30.96875 -74.9375 L 44.96875 -74.9375 Z M 75.375 0 "/></g></g></g><g transform="matrix(1, 0, 0, 1, 394, 82)"><g clip-path="url(#84953f27a7)"><g fill="#000000" fill-opacity="1"><g transform="translate(0.844357, 105.335037)"><g><path d="M 23.140625 0 L 6.609375 0 L 6.609375 -74.921875 L 23.140625 -74.921875 Z M 23.140625 0 "/></g></g></g><g fill="#000000" fill-opacity="1"><g transform="translate(30.589543, 105.335037)"><g><path d="M 6.609375 0 L 6.609375 -74.921875 L 23.140625 -74.921875 L 23.140625 -14.984375 L 50.03125 -14.984375 L 50.03125 0 Z M 6.609375 0 "/></g></g></g><g fill="#000000" fill-opacity="1"><g transform="translate(84.461371, 105.335037)"><g><path d="M 47.375 -28.65625 L 37.90625 -55.3125 L 28.421875 -28.65625 Z M 75.375 0 L 57.625 0 L 52.234375 -15.09375 L 23.6875 -15.09375 L 18.296875 0 L 0.546875 0 L 30.96875 -74.921875 L 44.953125 -74.921875 Z M 75.375 0 "/></g></g></g><g fill="#000000" fill-opacity="1"><g transform="translate(160.366665, 105.335037)"><g><path d="M 65.453125 0 L 48.921875 0 L 23.140625 -46.71875 L 23.140625 0 L 6.609375 0 L 6.609375 -74.921875 L 23.140625 -74.921875 L 48.921875 -28.203125 L 48.921875 -74.921875 L 65.453125 -74.921875 Z M 65.453125 0 "/></g></g></g></g></g><g transform="matrix(1, 0, 0, 1, 637, 138)"><g clip-path="url(#8bbfff16b1)"><g fill="#0097b2" fill-opacity="1"><g transform="translate(1.160183, 40.893964)"><g><path d="M 2.203125 -3.28125 C 2.203125 -4.320312 2.5625 -5.203125 3.28125 -5.921875 C 4.007812 -6.648438 4.898438 -7.015625 5.953125 -7.015625 C 6.972656 -7.015625 7.847656 -6.648438 8.578125 -5.921875 C 9.316406 -5.203125 9.6875 -4.320312 9.6875 -3.28125 C 9.6875 -2.257812 9.316406 -1.382812 8.578125 -0.65625 C 7.847656 0.0625 6.972656 0.421875 5.953125 0.421875 C 4.898438 0.421875 4.007812 0.0625 3.28125 -0.65625 C 2.5625 -1.382812 2.203125 -2.257812 2.203125 -3.28125 Z M 2.203125 -3.28125 "/></g></g></g><g fill="#0097b2" fill-opacity="1"><g transform="translate(13.059894, 40.893964)"><g><path d="M 23.421875 -9.828125 L 30.53125 -9.828125 C 29.875 -7.835938 28.847656 -6.066406 27.453125 -4.515625 C 26.066406 -2.972656 24.425781 -1.765625 22.53125 -0.890625 C 20.632812 -0.015625 18.582031 0.421875 16.375 0.421875 C 14.332031 0.421875 12.410156 0.0390625 10.609375 -0.71875 C 8.804688 -1.488281 7.21875 -2.5625 5.84375 -3.9375 C 4.46875 -5.3125 3.394531 -6.894531 2.625 -8.6875 C 1.863281 -10.488281 1.484375 -12.410156 1.484375 -14.453125 C 1.484375 -16.492188 1.863281 -18.414062 2.625 -20.21875 C 3.394531 -22.019531 4.46875 -23.609375 5.84375 -24.984375 C 7.21875 -26.359375 8.804688 -27.425781 10.609375 -28.1875 C 12.410156 -28.945312 14.332031 -29.328125 16.375 -29.328125 C 18.582031 -29.328125 20.628906 -28.890625 22.515625 -28.015625 C 24.398438 -27.140625 26.035156 -25.941406 27.421875 -24.421875 C 28.804688 -22.910156 29.828125 -21.160156 30.484375 -19.171875 L 23.390625 -19.171875 C 22.785156 -20.472656 21.832031 -21.5 20.53125 -22.25 C 19.226562 -23.007812 17.84375 -23.390625 16.375 -23.390625 C 14.8125 -23.390625 13.390625 -22.984375 12.109375 -22.171875 C 10.835938 -21.359375 9.828125 -20.28125 9.078125 -18.9375 C 8.328125 -17.59375 7.953125 -16.097656 7.953125 -14.453125 C 7.953125 -12.804688 8.328125 -11.3125 9.078125 -9.96875 C 9.828125 -8.625 10.835938 -7.546875 12.109375 -6.734375 C 13.390625 -5.929688 14.8125 -5.53125 16.375 -5.53125 C 17.875 -5.53125 19.273438 -5.925781 20.578125 -6.71875 C 21.878906 -7.507812 22.828125 -8.546875 23.421875 -9.828125 Z M 23.421875 -9.828125 "/></g></g></g><g fill="#0097b2" fill-opacity="1"><g transform="translate(44.636639, 40.893964)"><g><path d="M 24.875 -14.5 C 24.875 -16 24.472656 -17.394531 23.671875 -18.6875 C 22.878906 -19.976562 21.835938 -21.019531 20.546875 -21.8125 C 19.265625 -22.601562 17.875 -23 16.375 -23 C 14.894531 -23 13.503906 -22.601562 12.203125 -21.8125 C 10.898438 -21.019531 9.847656 -19.976562 9.046875 -18.6875 C 8.253906 -17.394531 7.859375 -16 7.859375 -14.5 C 7.859375 -13.019531 8.253906 -11.628906 9.046875 -10.328125 C 9.847656 -9.023438 10.898438 -7.96875 12.203125 -7.15625 C 13.503906 -6.351562 14.894531 -5.953125 16.375 -5.953125 C 17.875 -5.953125 19.265625 -6.351562 20.546875 -7.15625 C 21.835938 -7.96875 22.878906 -9.023438 23.671875 -10.328125 C 24.472656 -11.628906 24.875 -13.019531 24.875 -14.5 Z M 31.25 -14.453125 C 31.25 -12.472656 30.851562 -10.582031 30.0625 -8.78125 C 29.269531 -6.976562 28.1875 -5.390625 26.8125 -4.015625 C 25.4375 -2.640625 23.851562 -1.554688 22.0625 -0.765625 C 20.28125 0.0234375 18.382812 0.421875 16.375 0.421875 C 14.382812 0.421875 12.488281 0.0234375 10.6875 -0.765625 C 8.894531 -1.554688 7.3125 -2.640625 5.9375 -4.015625 C 4.5625 -5.390625 3.472656 -6.976562 2.671875 -8.78125 C 1.878906 -10.582031 1.484375 -12.472656 1.484375 -14.453125 C 1.484375 -16.460938 1.878906 -18.359375 2.671875 -20.140625 C 3.472656 -21.929688 4.5625 -23.515625 5.9375 -24.890625 C 7.3125 -26.265625 8.894531 -27.347656 10.6875 -28.140625 C 12.488281 -28.929688 14.382812 -29.328125 16.375 -29.328125 C 18.382812 -29.328125 20.28125 -28.929688 22.0625 -28.140625 C 23.851562 -27.347656 25.4375 -26.265625 26.8125 -24.890625 C 28.1875 -23.515625 29.269531 -21.929688 30.0625 -20.140625 C 30.851562 -18.359375 31.25 -16.460938 31.25 -14.453125 Z M 31.25 -14.453125 "/></g></g></g><g fill="#0097b2" fill-opacity="1"><g transform="translate(77.360852, 40.893964)"><g><path d="M 38.609375 0 L 31.59375 0 L 28.1875 -19.9375 L 22.53125 0 L 16.28125 0 L 10.625 -19.9375 L 7.234375 0 L 0.21875 0 L 5.828125 -28.90625 L 13.390625 -28.90625 L 19.421875 -8.625 L 25.421875 -28.90625 L 32.984375 -28.90625 Z M 38.609375 0 "/></g></g></g></g></g></svg>